# xmcd CD database file
#
# Track frame offsets:
#	150
#	21854
#	40238
#	57470
#	73634
#	88673
#	103754
#	121274
#	137543
#	155411
#	173204
#	197430
#
# Disc length: 2825 seconds
#
# Revision: 1
# Processed by: cddbd v1.5.2PL0 Copyright (c) Steve Scherf et al.
# Submitted via: CDex 1.70beta2
#
DISCID=9f0b070c
DTITLE=Ferhat Göçer - Yolun Açik Olsun
DYEAR=2007
DGENRE=Türkçe Pop
TTITLE0=Izmir Yaniyor
TTITLE1=Cennet
TTITLE2=Hançer
TTITLE3=Yolun Açik Olsun
TTITLE4=Yeditepe
TTITLE5=Vur Kadehi Ustam
TTITLE6=Yanginim Büyük
TTITLE7=Isyan
TTITLE8=Kadiköy
TTITLE9=Sevincim Ol
TTITLE10=Gidemem
TTITLE11=Yalan
EXTD=YEAR: 2007
EXTT0=
EXTT1=
EXTT2=
EXTT3=
EXTT4=
EXTT5=
EXTT6=
EXTT7=
EXTT8=
EXTT9=
EXTT10=
EXTT11=
PLAYORDER=
